PathFileType	4	(X/Y/Z)	s09c0101.trc
DataRate	CameraRate	NumFrames	NumMarkers	Units	OrigDataRate	OrigDataStartFrame	OrigNumFrames
200	200	6	50	mm	200	750	2000
Frame#	Time	racr			lacr			c7			jug			rlel			rdr			llel			ldr			s2			lic			ric			lasi			rasi			rpsi			lpsi			rgt			lgt			rth1			rth2			rth3			rth4			rlfc			rmfc			rsh1			rsh2			rsh3			rsh4			rlmal			rmmal			rcal			rtoe			rmt5			lth1			lth2			lth4			lth3			llfc			lmfc			llmal			lmmal			lcal			lmt5			lsh1			lsh2			lsh3			lsh4			ltoe			SBIKE			LBIKE			RBIKE			
		X1	Y1	Z1	X2	Y2	Z2	X3	Y3	Z3	X4	Y4	Z4	X5	Y5	Z5	X6	Y6	Z6	X7	Y7	Z7	X8	Y8	Z8	X9	Y9	Z9	X10	Y10	Z10	X11	Y11	Z11	X12	Y12	Z12	X13	Y13	Z13	X14	Y14	Z14	X15	Y15	Z15	X16	Y16	Z16	X17	Y17	Z17	X18	Y18	Z18	X19	Y19	Z19	X20	Y20	Z20	X21	Y21	Z21	X22	Y22	Z22	X23	Y23	Z23	X24	Y24	Z24	X25	Y25	Z25	X26	Y26	Z26	X27	Y27	Z27	X28	Y28	Z28	X29	Y29	Z29	X30	Y30	Z30	X31	Y31	Z31	X32	Y32	Z32	X33	Y33	Z33	X34	Y34	Z34	X35	Y35	Z35	X36	Y36	Z36	X37	Y37	Z37	X38	Y38	Z38	X39	Y39	Z39	X40	Y40	Z40	X41	Y41	Z41	X42	Y42	Z42	X43	Y43	Z43	X44	Y44	Z44	X45	Y45	Z45	X46	Y46	Z46	X47	Y47	Z47	X48	Y48	Z48	X49	Y49	Z49	X50	Y50	Z50	
750	3.7500	535.951746	1247.825308	-133.001699	523.548075	1220.297554	-437.367780	507.059781	1268.351769	-280.332807	474.528469	1131.996889	-271.923664	500.939512	1029.647241	1.794561	689.721611	874.776751	-37.050886	434.060174	964.388715	-517.829969	667.733644	885.134478	-447.841707	6.730448	1132.117935	-231.630645	131.710370	1127.467378	-398.390525	161.700543	1122.427349	-94.533125	178.822329	1069.976605	-375.307347	198.829912	1070.188273	-121.422201	46.674689	1162.456781	-175.775452	38.710418	1168.523950	-284.173428	138.822368	981.875600	-52.613782	102.295949	999.904238	-430.333699	235.599642	888.508580	-65.282521	307.722457	839.401949	-72.504958	342.906767	757.869680	-78.733856	331.948784	858.826563	-92.267889	379.173716	663.620988	-108.435879	358.530368	648.340858	-204.853907	302.252005	597.876618	-77.053553	260.308122	519.794118	-92.070641	185.877985	473.661665	-90.383870	279.323470	506.342763	-124.382487	115.373488	404.558337	-89.505921	120.825801	406.548818	-165.114058	36.251772	422.830729	-126.953552	219.517739	232.373422	-123.420189	148.687719	278.524451	-61.240556	219.273262	918.869038	-433.612664	301.128512	896.289823	-429.828765	321.391789	927.243024	-420.755821	363.938878	831.522752	-428.282974	436.293199	758.369446	-411.712456	457.116681	749.121694	-312.430793	331.522165	401.583686	-410.249457	342.929723	417.346641	-334.186559	267.575882	345.462450	-369.881366	439.664525	352.659759	-436.480707	406.578969	660.656837	-430.039054	402.586414	574.354425	-418.906219	354.637728	499.932559	-415.383358	428.067223	569.946695	-388.614626	521.895832	400.127303	-368.715016	-64.852177	853.007173	-240.687379	21.217724	83.555851	-441.763908	21.354015	83.840382	-43.533929	
751	3.7550	535.201669	1248.628173	-133.796172	526.202155	1219.371805	-438.088849	508.246457	1268.736984	-281.519792	475.613334	1132.495872	-272.558460	499.510186	1029.623582	-0.713801	689.452260	875.305374	-37.973884	435.338895	964.699989	-520.321919	667.984760	884.943546	-448.494019	8.149989	1133.173178	-236.267683	133.145271	1126.293076	-401.333585	161.534313	1124.397340	-98.149177	180.331430	1069.011695	-378.045177	198.926810	1072.019952	-124.119172	47.094157	1163.887572	-180.320617	37.235135	1170.556563	-288.711200	138.791883	984.461026	-55.698768	102.736181	999.145807	-432.457710	236.493076	891.517754	-68.007738	309.072362	842.963275	-75.308640	344.975576	761.835389	-81.309379	333.159737	862.437486	-95.268312	382.027974	667.330703	-110.219199	360.325451	652.062885	-206.461550	304.150040	602.636366	-78.476191	260.887069	525.312116	-93.149847	185.648354	480.348900	-91.132031	279.434983	511.407193	-125.608107	113.791063	412.339656	-89.962883	119.999400	414.208462	-165.648411	34.399937	430.521455	-127.326611	217.979263	240.520501	-123.512389	147.124094	286.622816	-61.359698	218.419807	916.222795	-435.181280	299.883559	892.287625	-431.304220	320.680856	923.053076	-422.572626	361.618620	826.621398	-429.536037	433.852029	751.888267	-412.469588	454.538696	743.121813	-313.415588	332.678074	394.182182	-410.318619	345.021148	410.549896	-334.950791	269.123103	338.410804	-369.994114	441.320320	344.723188	-436.412384	404.708388	654.106746	-430.797552	402.026624	567.679798	-419.493134	355.166606	492.587119	-415.665849	427.708586	563.653520	-389.271788	523.838863	391.764162	-368.736698	-64.824365	852.896342	-240.805721	21.206359	83.534505	-441.782585	21.344187	83.865966	-43.555631	
752	3.7600	534.357168	1249.514660	-134.588835	528.875382	1218.471827	-438.619061	509.321166	1269.038944	-282.708713	476.615234	1132.915655	-273.058818	498.056264	1029.687920	-3.107476	689.263950	875.855284	-39.058010	436.857348	965.009926	-523.118241	668.329131	884.695200	-449.197601	9.542253	1133.955725	-241.022876	135.189558	1125.398377	-404.982338	160.889520	1126.664755	-101.980481	181.920606	1068.146706	-380.810190	199.059390	1074.062780	-126.894283	47.464716	1165.273773	-184.944787	37.966203	1171.113772	-293.095793	138.855113	987.205275	-58.809354	103.371726	998.257690	-434.452320	237.310314	894.532870	-70.999047	310.464714	846.994843	-78.283058	347.267650	766.191951	-83.739836	334.546808	866.800326	-97.549384	384.917344	671.372545	-112.077178	362.515538	656.047446	-208.027017	306.250579	607.592790	-79.918834	261.768746	530.877003	-94.283248	185.823157	487.118488	-91.794647	280.130426	516.724415	-126.610681	112.916996	420.233256	-90.247086	119.133363	422.013164	-165.856340	33.192426	438.527783	-127.536576	216.795806	248.654528	-123.569689	145.956038	294.850077	-61.392581	217.852359	913.494179	-436.399852	298.884677	888.317971	-432.527282	320.223279	918.805782	-424.098429	359.471080	821.550514	-430.315344	431.218598	745.725476	-412.474898	451.976950	736.711976	-314.084854	333.710593	387.028940	-410.524879	345.302756	401.816116	-333.452399	270.452687	331.544444	-369.976874	442.694426	336.632194	-436.331111	402.757562	647.479253	-431.254223	401.251355	561.026606	-419.796900	355.487607	485.335220	-415.899672	427.081622	557.428049	-389.797775	525.547383	383.029825	-368.686845	-64.857713	852.905542	-241.152089	21.189024	83.528761	-441.801360	21.344285	83.880073	-43.567087	
753	3.7650	533.419385	1250.313030	-135.188183	531.578254	1217.587741	-439.075634	510.517871	1269.634771	-284.059863	478.007722	1133.508055	-274.537318	496.445932	1029.727412	-5.349230	689.022140	876.448920	-40.283233	438.621350	965.586159	-526.006630	668.759197	884.421046	-450.019145	12.474258	1133.735062	-246.349785	137.229251	1124.559747	-408.673596	160.863755	1128.811754	-105.531520	183.554562	1067.258843	-383.598976	199.183121	1076.188131	-129.729046	47.860774	1166.746513	-189.696512	38.807271	1171.606362	-297.687082	138.936854	990.184741	-61.864624	104.207959	997.149956	-436.299583	238.677683	898.078125	-73.535665	312.142050	851.382196	-81.067345	350.052370	770.827774	-85.911850	335.850695	871.335360	-100.530319	388.041396	675.651803	-113.909807	364.748939	660.337647	-210.035016	308.791777	612.695586	-81.203191	263.448057	536.678481	-95.038857	186.433574	494.083957	-92.478425	281.035802	522.261427	-127.673834	112.494030	428.396241	-90.421011	118.550753	430.022565	-166.255204	32.557443	446.887155	-127.722147	216.052896	256.727271	-123.651930	145.268288	303.029238	-61.503810	217.315744	910.784920	-437.859488	298.105331	884.235029	-433.569986	320.025127	914.257967	-425.186440	357.591019	816.445554	-430.827576	428.364799	739.468380	-412.421385	448.450844	730.339873	-315.268794	334.518586	379.858301	-410.578662	346.186247	394.460988	-333.619170	271.413322	324.840226	-370.112111	443.706521	328.580014	-436.297417	400.633087	641.002131	-431.504802	400.299808	554.455582	-420.062991	355.637460	478.148420	-416.069810	426.256046	551.282520	-390.146274	526.983435	374.126772	-368.629163	-64.895744	852.945658	-241.543445	21.200803	83.473298	-441.834563	21.329424	83.909721	-43.616788	
754	3.7700	531.992206	1251.271695	-135.656439	534.366651	1216.733637	-439.371745	511.389725	1270.101677	-284.926755	478.963736	1134.039980	-274.934888	494.883189	1029.800981	-7.459031	688.711833	877.269962	-41.667313	440.525580	966.313420	-529.127532	669.172249	884.257218	-450.853865	15.775257	1133.220257	-251.837143	139.220368	1123.585749	-412.298902	160.011043	1131.133259	-109.909334	185.246723	1066.325483	-386.308141	199.411229	1078.290477	-132.468836	48.345054	1168.142408	-194.541407	42.297875	1170.424107	-302.851746	139.161798	993.295605	-64.833040	105.177311	995.854956	-438.182955	240.083485	901.900583	-76.357981	314.038061	856.104286	-83.810485	352.697107	776.292799	-87.971355	337.484402	876.101672	-103.441679	391.356068	680.143932	-115.690739	367.517082	664.612656	-211.825150	311.491604	618.149355	-82.661074	265.042072	542.658454	-96.026014	187.400864	501.264135	-93.076445	282.235187	527.988424	-128.653687	112.585064	436.490306	-90.538692	118.312586	438.124451	-166.660969	32.494339	455.429056	-127.752562	215.609413	265.037035	-123.738834	144.945710	311.380037	-61.642614	217.187857	907.974643	-438.891245	297.516277	880.111444	-434.424633	319.932160	909.833872	-426.150593	355.840900	811.236826	-431.251605	425.396001	733.328304	-412.360047	445.294915	723.671211	-315.525697	335.042978	372.811612	-410.515619	346.970977	387.352934	-333.722418	272.094426	318.301344	-370.082932	444.415851	320.404817	-436.233738	398.322015	634.553269	-431.540209	399.217348	548.232271	-420.423326	355.571290	471.076016	-416.077714	425.379578	544.820410	-389.753534	528.190021	365.076483	-368.596272	-64.921049	852.977415	-241.964556	21.219294	83.552538	-441.772567	21.335041	83.914350	-43.633057	
755	3.7750	530.927368	1252.540534	-135.697529	537.180926	1215.969972	-439.552591	512.453341	1270.678381	-285.580953	479.933292	1134.727042	-275.093982	493.300459	1029.848653	-9.454440	688.134000	878.019441	-43.158719	442.685539	967.055004	-532.442589	669.608557	884.147347	-451.748971	18.274504	1133.120134	-257.073683	141.153721	1122.585889	-415.916039	160.767066	1133.855088	-112.845605	186.808080	1065.421099	-389.056199	199.697845	1080.454938	-135.156814	48.820527	1169.575968	-199.413759	43.331115	1170.807756	-308.146139	139.435464	996.787936	-67.557155	106.322894	994.419379	-440.103490	241.761033	906.140705	-78.995810	316.216027	861.094472	-86.354900	355.750245	781.552652	-89.986373	339.187727	881.125907	-106.389420	394.797088	685.036163	-117.709287	370.344982	668.497727	-213.791724	314.546434	623.722756	-84.025429	267.042511	548.912914	-97.006992	188.796650	508.619690	-93.617353	283.909322	533.826157	-129.593357	112.964591	444.924456	-90.688772	118.717217	446.434380	-166.864395	32.924115	464.008644	-127.738364	215.642580	272.869534	-123.748894	145.129825	319.617590	-61.762980	217.210309	905.124603	-439.845554	297.043880	875.878057	-435.094886	319.947480	905.276309	-426.922105	354.212835	805.972372	-431.399484	422.320817	727.116792	-412.065128	443.408362	718.527443	-314.803359	335.172535	366.089201	-410.453516	347.512318	380.313116	-333.641549	272.416903	311.832283	-370.039652	444.760016	312.279605	-436.033215	395.873628	628.039776	-431.358226	397.950531	541.880421	-420.291563	355.312919	464.119445	-415.938498	424.198870	538.709252	-389.698514	529.007140	355.934969	-368.444592	-64.920064	853.009162	-242.298070	21.220006	83.515667	-441.802339	21.332669	83.944256	-43.675969	
